# xmcd CD database file
#
# Track frame offsets:
#	150
#	19593
#	39138
#	60585
#
# Disc length: 1066 seconds
#
# Revision: 2
# Processed by: cddbd v1.5.1PL0 Copyright (c) Steve Scherf et al.
# Submitted via: CDex 1.51
#
DISCID=22042804
DTITLE=桜庭裕一郎 - お前やないと あかんねん
DYEAR=2003
DGENRE=JPop
TTITLE0=お前やないと あかんねん
TTITLE1=お前やないと あかんねん(Acoustic version)
TTITLE2=ひとりぼっちのハブラシ(Acoustic version)
TTITLE3=お前やないと あかんねん(Backing Track)
EXTD=YEAR: 2003
EXTT0=
EXTT1=
EXTT2=
EXTT3=
PLAYORDER=
